<?xml version="1.0" encoding="UTF-8"?>
<svg version="1.1" xmlns="http://www.w3.org/2000/svg" width="192" height="192">
<path d="M0 0 C20.51408968 15.51613355 34.15601883 38.3572756 38.31542969 63.72460938 C41.50807525 87.84215268 35.70197661 112.25897349 21.71191406 132.18505859 C5.1402792 153.5563059 -16.80598551 168.79762959 -43.89208984 172.94580078 C-69.02750925 176.03094263 -94.74122055 169.95467101 -114.87011719 154.30224609 C-115.68867187 153.62419922 -116.50722656 152.94615234 -117.35058594 152.24755859 C-118.20007813 151.54888672 -119.04957031 150.85021484 -119.92480469 150.13037109 C-138.36121468 134.26320047 -151.66017803 110.42442764 -153.53076172 85.88378906 C-155.03020419 57.8565759 -146.00588667 32.25610968 -127.35058594 11.24755859 C-93.72364788 -24.73640783 -39.21923079 -28.20529719 0 0 Z " fill="#038BF3" transform="translate(153.3505859375,18.75244140625)"/>
<path d="M0 0 C20.51408968 15.51613355 34.15601883 38.3572756 38.31542969 63.72460938 C41.50807525 87.84215268 35.70197661 112.25897349 21.71191406 132.18505859 C5.1402792 153.5563059 -16.80598551 168.79762959 -43.89208984 172.94580078 C-69.02750925 176.03094263 -94.74122055 169.95467101 -114.87011719 154.30224609 C-115.68867187 153.62419922 -116.50722656 152.94615234 -117.35058594 152.24755859 C-118.20007813 151.54888672 -119.04957031 150.85021484 -119.92480469 150.13037109 C-138.36121468 134.26320047 -151.66017803 110.42442764 -153.53076172 85.88378906 C-155.03020419 57.8565759 -146.00588667 32.25610968 -127.35058594 11.24755859 C-93.72364788 -24.73640783 -39.21923079 -28.20529719 0 0 Z M-122.48339844 21.00146484 C-129.58618646 28.7591365 -134.62706005 38.46833401 -138.35058594 48.24755859 C-138.74375 49.26076172 -139.13691406 50.27396484 -139.54199219 51.31787109 C-142.33604723 59.86553775 -142.73632605 67.99095024 -142.78808594 76.93505859 C-142.79815674 78.06298828 -142.80822754 79.19091797 -142.81860352 80.35302734 C-142.58869086 102.68553628 -132.48708597 123.17501557 -117.35058594 139.24755859 C-100.09594653 155.62098907 -78.41504314 162.42766039 -55.03808594 162.62255859 C-54.04856934 162.63641602 -53.05905273 162.65027344 -52.03955078 162.66455078 C-30.44016026 162.52764055 -9.4290644 151.23915722 5.64941406 136.24755859 C23.87203808 116.84406877 28.60276868 92.0811104 27.81982422 66.22851562 C26.71739849 46.94396249 14.53108348 26.14797703 0.47363281 13.25146484 C-15.41587374 -0.08947928 -34.7924477 -8.22935941 -55.66308594 -8.00244141 C-57.03992554 -7.99120239 -57.03992554 -7.99120239 -58.44458008 -7.97973633 C-84.08421185 -7.575696 -104.87295112 2.66950981 -122.48339844 21.00146484 Z " fill="#FCFDFE" transform="translate(153.3505859375,18.75244140625)"/>
<path d="M0 0 C4.89449912 4.57475797 10.75331846 10.58002344 11.55859375 17.38671875 C10.99408929 21.74231635 9.21746741 23.14789051 6.1875 26.25 C2.94622495 27.87063753 -0.31644702 27.91191048 -3.8125 27.25 C-6.04478074 25.34572785 -7.51099067 23.83444758 -9.25 21.5625 C-13.58216457 16.40702134 -17.44701595 12.78729084 -23.8125 10.25 C-24.59109375 9.93546875 -25.3696875 9.6209375 -26.171875 9.296875 C-35.36960139 6.07474155 -44.56835386 5.91458667 -53.49609375 9.984375 C-62.45318211 14.87829849 -69.04780031 21.67216107 -72.8125 31.25 C-75.2291384 40.91655358 -74.64417059 50.50197529 -69.8125 59.25 C-64.33047294 68.31642937 -56.15869953 74.66709828 -45.8125 77.25 C-34.10729853 78.53138122 -24.73510405 76.28148825 -15.25390625 69.3671875 C-12.58054295 67.04884685 -10.43895862 64.53896618 -8.1875 61.8125 C-4.45640386 57.49574679 -4.45640386 57.49574679 -1.68359375 56.4375 C1.87906348 56.22117167 4.77068541 57.2611728 7.6875 59.1875 C10.58100745 62.73204663 11.09403669 64.45795117 10.76171875 68.92578125 C9.69355518 73.24930046 7.16115169 76.03623978 4.1875 79.25 C3.53394531 80.00539063 2.88039063 80.76078125 2.20703125 81.5390625 C-7.20024936 91.78597289 -21.00175032 97.67830562 -34.87109375 98.59765625 C-42.05396915 98.85069997 -48.48753568 98.06737382 -55.37890625 95.9375 C-63.40957163 93.6688048 -69.24995732 95.89764561 -76.69921875 99.25390625 C-80.20519483 100.37564264 -82.28054738 100.13431197 -85.8125 99.25 C-86.83609515 94.33674329 -86.67027331 91.26690296 -85.31640625 86.34375 C-84.17355439 81.59515621 -83.72432102 77.36276308 -86.015625 72.9140625 C-87.07802409 71.25607604 -88.14328497 69.59992092 -89.2109375 67.9453125 C-96.36536627 55.90493237 -96.91151353 39.64341277 -93.6875 26.1875 C-88.49858293 10.81293091 -77.71847814 -1.67035159 -63.2421875 -9.0625 C-42.04903625 -18.09782467 -18.0363276 -14.02375135 0 0 Z " fill="#FBFDFE" transform="translate(135.8125,53.75)"/>
</svg>
